<svg xmlns="http://www.w3.org/2000/svg" xmlns:xlink="http://www.w3.org/1999/xlink" width="40" zoomAndPan="magnify" viewBox="0 0 30 30.000001" height="40" preserveAspectRatio="xMidYMid meet" version="1.0"><defs><clipPath id="2427a6d99b"><path d="M 0.484375 14 L 6 14 L 6 15 L 0.484375 15 Z M 0.484375 14 " clip-rule="nonzero"/></clipPath><clipPath id="e08f0bb2d1"><path d="M 14 24 L 16 24 L 16 29.03125 L 14 29.03125 Z M 14 24 " clip-rule="nonzero"/></clipPath><clipPath id="95e03f1c45"><path d="M 24 14 L 29.515625 14 L 29.515625 15 L 24 15 Z M 24 14 " clip-rule="nonzero"/></clipPath></defs><path fill="#c1c1c1" d="M 15 22.960938 C 10.339844 22.960938 6.554688 19.175781 6.554688 14.515625 C 6.554688 9.855469 10.339844 6.070312 15 6.070312 Z M 15 5.5 C 10.027344 5.5 5.984375 9.542969 5.984375 14.515625 C 5.984375 19.488281 10.027344 23.53125 15 23.53125 C 19.972656 23.53125 24.015625 19.488281 24.015625 14.515625 C 24.015625 9.542969 19.972656 5.5 15 5.5 " fill-opacity="1" fill-rule="nonzero"/><path fill="#c1c1c1" d="M 15 4.792969 C 15.15625 4.792969 15.285156 4.667969 15.285156 4.511719 L 15.285156 0.285156 C 15.285156 0.128906 15.15625 0 15 0 C 14.84375 0 14.714844 0.128906 14.714844 0.285156 L 14.714844 4.511719 C 14.714844 4.667969 14.84375 4.792969 15 4.792969 " fill-opacity="1" fill-rule="nonzero"/><path fill="#c1c1c1" d="M 7.722656 7.644531 C 7.78125 7.699219 7.851562 7.726562 7.925781 7.726562 C 8 7.726562 8.070312 7.699219 8.128906 7.644531 C 8.238281 7.53125 8.238281 7.351562 8.128906 7.238281 L 5.136719 4.253906 C 5.027344 4.140625 4.84375 4.140625 4.738281 4.253906 C 4.625 4.363281 4.625 4.542969 4.738281 4.652344 L 7.722656 7.644531 " fill-opacity="1" fill-rule="nonzero"/><g clip-path="url(#2427a6d99b)"><path fill="#c1c1c1" d="M 5.277344 14.515625 C 5.277344 14.359375 5.152344 14.234375 4.996094 14.234375 L 0.765625 14.234375 C 0.609375 14.234375 0.484375 14.359375 0.484375 14.515625 C 0.484375 14.671875 0.609375 14.800781 0.765625 14.800781 L 4.996094 14.800781 C 5.152344 14.800781 5.277344 14.671875 5.277344 14.515625 " fill-opacity="1" fill-rule="nonzero"/></g><path fill="#c1c1c1" d="M 7.722656 21.390625 L 4.738281 24.378906 C 4.625 24.488281 4.625 24.671875 4.738281 24.78125 C 4.792969 24.835938 4.863281 24.863281 4.9375 24.863281 C 5.007812 24.863281 5.082031 24.835938 5.136719 24.78125 L 8.128906 21.792969 C 8.238281 21.679688 8.238281 21.503906 8.128906 21.390625 C 8.015625 21.28125 7.835938 21.28125 7.722656 21.390625 " fill-opacity="1" fill-rule="nonzero"/><g clip-path="url(#e08f0bb2d1)"><path fill="#c1c1c1" d="M 15 24.238281 C 14.84375 24.238281 14.714844 24.363281 14.714844 24.519531 L 14.714844 28.75 C 14.714844 28.90625 14.84375 29.03125 15 29.03125 C 15.15625 29.03125 15.285156 28.90625 15.285156 28.75 L 15.285156 24.519531 C 15.285156 24.363281 15.15625 24.238281 15 24.238281 " fill-opacity="1" fill-rule="nonzero"/></g><path fill="#c1c1c1" d="M 22.277344 21.390625 C 22.164062 21.28125 21.984375 21.28125 21.871094 21.390625 C 21.761719 21.503906 21.761719 21.679688 21.871094 21.792969 L 24.863281 24.78125 C 24.917969 24.835938 24.992188 24.863281 25.0625 24.863281 C 25.136719 24.863281 25.207031 24.835938 25.261719 24.78125 C 25.375 24.671875 25.375 24.488281 25.261719 24.378906 L 22.277344 21.390625 " fill-opacity="1" fill-rule="nonzero"/><g clip-path="url(#95e03f1c45)"><path fill="#c1c1c1" d="M 29.234375 14.234375 L 25.003906 14.234375 C 24.847656 14.234375 24.722656 14.359375 24.722656 14.515625 C 24.722656 14.671875 24.847656 14.800781 25.003906 14.800781 L 29.234375 14.800781 C 29.390625 14.800781 29.515625 14.671875 29.515625 14.515625 C 29.515625 14.359375 29.390625 14.234375 29.234375 14.234375 " fill-opacity="1" fill-rule="nonzero"/></g><path fill="#c1c1c1" d="M 22.074219 7.726562 C 22.148438 7.726562 22.21875 7.699219 22.277344 7.644531 L 25.261719 4.652344 C 25.375 4.542969 25.375 4.363281 25.261719 4.253906 C 25.152344 4.140625 24.972656 4.140625 24.863281 4.253906 L 21.871094 7.238281 C 21.761719 7.351562 21.761719 7.53125 21.871094 7.644531 C 21.929688 7.699219 22 7.726562 22.074219 7.726562 " fill-opacity="1" fill-rule="nonzero"/></svg>