<svg xmlns="http://www.w3.org/2000/svg" xmlns:xlink="http://www.w3.org/1999/xlink" width="150" zoomAndPan="magnify" viewBox="0 0 112.5 112.499997" height="150" preserveAspectRatio="xMidYMid meet" version="1.0"><defs><clipPath id="a9c7ca5bb4"><path d="M 0 0 L 112.003906 0 L 112.003906 112.003906 L 0 112.003906 Z M 0 0 " clip-rule="nonzero"/></clipPath></defs><g clip-path="url(#a9c7ca5bb4)"><path fill="#dfdfdf" d="M 102.082031 0 L 10.417969 0 C 4.675781 0 0 4.675781 0 10.417969 L 0 102.082031 C 0 107.824219 4.675781 112.5 10.417969 112.5 L 102.082031 112.5 C 107.824219 112.5 112.5 107.824219 112.5 102.082031 L 112.5 10.417969 C 112.5 4.675781 107.824219 0 102.082031 0 Z M 110.714844 102.082031 C 110.714844 106.839844 106.839844 110.714844 102.082031 110.714844 L 10.417969 110.714844 C 5.660156 110.714844 1.785156 106.839844 1.785156 102.082031 L 1.785156 10.417969 C 1.785156 5.660156 5.660156 1.785156 10.417969 1.785156 L 102.082031 1.785156 C 106.839844 1.785156 110.714844 5.660156 110.714844 10.417969 Z M 110.714844 102.082031 " fill-opacity="1" fill-rule="nonzero"/></g><path fill="#dfdfdf" d="M 21.230469 59.402344 L 30.269531 59.402344 C 30.632812 59.402344 30.960938 59.179688 31.097656 58.839844 L 37.648438 42.457031 L 45.476562 42.457031 L 52.027344 58.839844 C 52.164062 59.179688 52.492188 59.402344 52.859375 59.402344 L 61.902344 59.402344 C 62.199219 59.402344 62.472656 59.257812 62.636719 59.015625 C 62.804688 58.773438 62.84375 58.464844 62.734375 58.1875 L 45.789062 14.125 C 45.65625 13.78125 45.324219 13.554688 44.957031 13.554688 L 38.179688 13.554688 C 37.808594 13.554688 37.480469 13.78125 37.347656 14.125 L 20.398438 58.1875 C 20.292969 58.464844 20.332031 58.769531 20.496094 59.015625 C 20.664062 59.257812 20.9375 59.402344 21.230469 59.402344 Z M 38.792969 15.339844 L 44.34375 15.339844 L 60.601562 57.617188 L 53.460938 57.617188 L 46.910156 41.230469 C 46.773438 40.890625 46.445312 40.667969 46.078125 40.667969 L 37.042969 40.667969 C 36.679688 40.667969 36.351562 40.890625 36.214844 41.230469 L 29.664062 57.617188 L 22.53125 57.617188 Z M 38.792969 15.339844 " fill-opacity="1" fill-rule="nonzero"/><path fill="#dfdfdf" d="M 37.042969 35.679688 L 46.082031 35.679688 C 46.371094 35.679688 46.644531 35.535156 46.8125 35.296875 C 46.980469 35.058594 47.019531 34.753906 46.917969 34.480469 L 42.402344 22.050781 C 42.273438 21.699219 41.9375 21.464844 41.5625 21.464844 C 41.1875 21.464844 40.851562 21.699219 40.722656 22.050781 L 36.207031 34.480469 C 36.105469 34.753906 36.144531 35.058594 36.3125 35.296875 C 36.480469 35.535156 36.753906 35.679688 37.042969 35.679688 Z M 41.5625 24.96875 L 44.804688 33.894531 L 38.320312 33.894531 Z M 41.5625 24.96875 " fill-opacity="1" fill-rule="nonzero"/><path fill="#dfdfdf" d="M 105.082031 66.6875 C 97.222656 64.375 89.125 63.605469 81.019531 64.398438 C 72.398438 65.238281 63.847656 67.9375 56.25 72.183594 C 48.652344 67.933594 40.101562 65.238281 31.480469 64.398438 C 23.375 63.605469 15.277344 64.375 7.417969 66.6875 C 7.039062 66.800781 6.777344 67.148438 6.777344 67.542969 L 6.777344 87.882812 C 6.777344 88.191406 6.9375 88.480469 7.199219 88.644531 C 7.460938 88.804688 7.789062 88.820312 8.066406 88.683594 C 13.101562 86.191406 21.226562 83.394531 31.316406 84.257812 C 39.878906 84.976562 46.597656 88.128906 50.863281 90.773438 C 50.851562 90.9375 50.839844 91.105469 50.839844 91.269531 C 50.839844 94.257812 53.265625 96.6875 56.25 96.6875 C 59.234375 96.6875 61.660156 94.257812 61.660156 91.269531 C 61.660156 91.105469 61.648438 90.9375 61.636719 90.773438 C 65.902344 88.128906 72.621094 84.976562 81.183594 84.257812 C 91.277344 83.398438 99.398438 86.191406 104.433594 88.683594 C 104.710938 88.820312 105.039062 88.804688 105.300781 88.644531 C 105.5625 88.480469 105.722656 88.191406 105.722656 87.882812 L 105.722656 67.542969 C 105.722656 67.148438 105.460938 66.800781 105.082031 66.6875 Z M 81.195312 66.175781 C 88.847656 65.425781 96.5 66.113281 103.9375 68.214844 L 103.9375 78.691406 C 96.964844 76.21875 89.46875 75.1875 82.167969 75.699219 C 71.242188 76.460938 62.71875 80.4375 57.144531 83.972656 L 57.144531 79.359375 C 59.050781 78.273438 67.335938 73.917969 78.921875 72.949219 C 79.414062 72.910156 79.78125 72.480469 79.738281 71.988281 C 79.699219 71.496094 79.269531 71.125 78.773438 71.171875 C 68.019531 72.070312 60.164062 75.707031 57.144531 77.320312 L 57.144531 73.730469 C 64.523438 69.609375 72.824219 66.992188 81.195312 66.175781 Z M 8.5625 68.214844 C 16 66.113281 23.648438 65.425781 31.304688 66.175781 C 39.675781 66.992188 47.980469 69.597656 55.355469 73.71875 L 55.355469 77.320312 C 52.335938 75.707031 44.480469 72.070312 33.726562 71.171875 C 33.230469 71.128906 32.800781 71.496094 32.761719 71.988281 C 32.71875 72.480469 33.085938 72.910156 33.578125 72.953125 C 45.140625 73.917969 53.445312 78.277344 55.355469 79.359375 L 55.355469 83.96875 C 49.78125 80.433594 41.25 76.460938 30.332031 75.699219 C 29.113281 75.613281 27.886719 75.570312 26.660156 75.570312 C 20.542969 75.570312 14.371094 76.632812 8.5625 78.691406 Z M 8.5625 68.214844 " fill-opacity="1" fill-rule="nonzero"/><path fill="#dfdfdf" d="M 73.195312 33.894531 C 66.476562 33.894531 61.007812 39.359375 61.007812 46.082031 C 61.007812 52.804688 66.476562 58.277344 73.195312 58.277344 C 76.253906 58.277344 79.117188 57.15625 81.339844 55.140625 L 81.339844 57.382812 C 81.339844 57.875 81.738281 58.277344 82.230469 58.277344 L 89.007812 58.277344 C 89.5 58.277344 89.902344 57.875 89.902344 57.382812 L 89.902344 26.875 C 89.902344 26.59375 89.769531 26.328125 89.542969 26.160156 C 87.199219 24.40625 82.257812 21.464844 75.457031 21.464844 C 72.53125 21.464844 66.808594 22.074219 61.367188 26.160156 C 61.140625 26.328125 61.011719 26.59375 61.011719 26.875 L 61.011719 33.652344 C 61.011719 34.011719 61.226562 34.335938 61.558594 34.476562 C 61.890625 34.613281 62.273438 34.542969 62.53125 34.289062 C 63.589844 33.242188 67.480469 29.859375 73.167969 30.027344 C 76.96875 30.148438 79.816406 31.816406 81.339844 32.964844 L 81.339844 37.019531 C 79.121094 35.011719 76.257812 33.894531 73.195312 33.894531 Z M 82.792969 31.832031 C 81.203125 30.554688 77.84375 28.390625 73.226562 28.242188 C 68.46875 28.097656 64.832031 30.15625 62.792969 31.707031 L 62.792969 27.324219 C 67.714844 23.785156 72.816406 23.25 75.457031 23.25 C 81.414062 23.25 85.828125 25.691406 88.117188 27.328125 L 88.117188 56.492188 L 83.125 56.492188 L 83.125 52.839844 C 83.125 52.457031 82.878906 52.113281 82.515625 51.992188 C 82.148438 51.871094 81.75 51.996094 81.519531 52.304688 C 79.519531 54.964844 76.488281 56.492188 73.195312 56.492188 C 67.460938 56.492188 62.792969 51.820312 62.792969 46.082031 C 62.792969 40.34375 67.460938 35.679688 73.195312 35.679688 C 76.492188 35.679688 79.527344 37.203125 81.519531 39.855469 C 81.75 40.164062 82.148438 40.289062 82.515625 40.167969 C 82.878906 40.046875 83.125 39.707031 83.125 39.320312 L 83.125 32.527344 C 83.125 32.257812 83 32 82.792969 31.832031 Z M 82.792969 31.832031 " fill-opacity="1" fill-rule="nonzero"/><path fill="#dfdfdf" d="M 73.195312 39.542969 C 69.585938 39.542969 66.652344 42.476562 66.652344 46.082031 C 66.652344 49.6875 69.585938 52.625 73.195312 52.625 C 76.804688 52.625 79.742188 49.6875 79.742188 46.082031 C 79.742188 42.476562 76.804688 39.542969 73.195312 39.542969 Z M 73.195312 50.839844 C 70.574219 50.839844 68.4375 48.703125 68.4375 46.082031 C 68.4375 43.460938 70.574219 41.332031 73.195312 41.332031 C 75.820312 41.332031 77.957031 43.460938 77.957031 46.082031 C 77.957031 48.703125 75.820312 50.839844 73.195312 50.839844 Z M 73.195312 50.839844 " fill-opacity="1" fill-rule="nonzero"/></svg>