<svg width="45" height="45" viewBox="0 0 45 45" fill="none" xmlns="http://www.w3.org/2000/svg">
<circle cx="22.5" cy="22.5" r="22" stroke="black"/>
<path d="M19.14 25.36H14.62L14.9 24.28H18.82L19.14 25.36ZM16.98 19.52L13.7 29H12.32L16.92 16.32H17.08L21.68 29H20.24L16.98 19.52ZM26.22 29.22C25.18 29.22 24.38 28.9867 23.82 28.52C23.26 28.04 22.98 27.4333 22.98 26.7C22.98 26.2067 23.1 25.7667 23.34 25.38C23.58 24.98 23.9067 24.6467 24.32 24.38C24.7467 24.1 25.24 23.8867 25.8 23.74C26.36 23.5933 26.9533 23.52 27.58 23.52C27.8067 23.52 28.0333 23.5267 28.26 23.54C28.5 23.54 28.7467 23.5533 29 23.58C29.2667 23.5933 29.54 23.62 29.82 23.66L29.86 24.76C29.62 24.72 29.3733 24.6933 29.12 24.68C28.88 24.6533 28.64 24.6333 28.4 24.62C28.16 24.6067 27.9267 24.6 27.7 24.6C27.22 24.6 26.78 24.64 26.38 24.72C25.98 24.8 25.6333 24.92 25.34 25.08C25.0467 25.24 24.82 25.4467 24.66 25.7C24.5 25.9533 24.42 26.26 24.42 26.62C24.42 26.9 24.4667 27.14 24.56 27.34C24.6667 27.5267 24.8067 27.68 24.98 27.8C25.1533 27.9067 25.3533 27.9867 25.58 28.04C25.82 28.0933 26.08 28.12 26.36 28.12C26.88 28.12 27.34 28.04 27.74 27.88C28.1533 27.7067 28.5 27.46 28.78 27.14C29.0733 26.82 29.2933 26.4267 29.44 25.96C29.5867 25.4933 29.66 24.96 29.66 24.36C29.66 23.4533 29.5533 22.7467 29.34 22.24C29.1267 21.7333 28.8067 21.3733 28.38 21.16C27.9667 20.9467 27.4333 20.84 26.78 20.84C26.34 20.84 25.9067 20.9267 25.48 21.1C25.0533 21.26 24.6667 21.5133 24.32 21.86L23.62 20.94C24.0467 20.5133 24.54 20.1933 25.1 19.98C25.66 19.7667 26.2533 19.66 26.88 19.66C27.48 19.66 28.0267 19.7333 28.52 19.88C29.0133 20.0267 29.4333 20.2733 29.78 20.62C30.14 20.9533 30.4133 21.4067 30.6 21.98C30.8 22.5533 30.9 23.2733 30.9 24.14V29H29.34V27.6C29.1667 27.9333 28.9533 28.2067 28.7 28.42C28.46 28.6333 28.2 28.8 27.92 28.92C27.64 29.0267 27.3533 29.1 27.06 29.14C26.7667 29.1933 26.4867 29.22 26.22 29.22Z" fill="black"/>
</svg>
