<svg width="45" height="45" viewBox="0 0 45 45" fill="none" xmlns="http://www.w3.org/2000/svg">
<circle cx="22.5" cy="22.5" r="22" stroke="black"/>
<path d="M21.9998 33.6146C15.7863 33.6146 10.7394 28.5677 10.7394 22.3542C10.7394 16.1407 15.7863 11.0938 21.9998 11.0938V33.6146ZM21.9998 10.3334C15.3696 10.3334 9.979 15.724 9.979 22.3542C9.979 28.9844 15.3696 34.375 21.9998 34.375C28.63 34.375 34.0207 28.9844 34.0207 22.3542C34.0207 15.724 28.63 10.3334 21.9998 10.3334Z" fill="black"/>
<path d="M21.9998 9.39063C22.2082 9.39063 22.38 9.22396 22.38 9.01563V3.38021C22.38 3.17187 22.2082 3 21.9998 3C21.7915 3 21.6196 3.17187 21.6196 3.38021V9.01563C21.6196 9.22396 21.7915 9.39063 21.9998 9.39063Z" fill="black"/>
<path d="M12.297 13.1927C12.3752 13.2656 12.4689 13.3021 12.5679 13.3021C12.6668 13.3021 12.7606 13.2656 12.8387 13.1927C12.9845 13.0417 12.9845 12.8021 12.8387 12.651L8.84912 8.67187C8.70329 8.52083 8.4585 8.52083 8.31787 8.67187C8.16683 8.81771 8.16683 9.05729 8.31787 9.20313L12.297 13.1927Z" fill="black"/>
<mask id="mask0_121_5" style="mask-type:luminance" maskUnits="userSpaceOnUse" x="2" y="21" width="8" height="2">
<path d="M2.646 21.6666H10.0002V23H2.646V21.6666Z" fill="white"/>
</mask>
<g mask="url(#mask0_121_5)">
<path d="M9.03662 22.3541C9.03662 22.1458 8.86995 21.9791 8.66162 21.9791H3.021C2.81266 21.9791 2.646 22.1458 2.646 22.3541C2.646 22.5625 2.81266 22.7343 3.021 22.7343H8.66162C8.86995 22.7343 9.03662 22.5625 9.03662 22.3541Z" fill="black"/>
</g>
<path d="M12.297 31.5209L8.31787 35.5052C8.16683 35.6511 8.16683 35.8959 8.31787 36.0417C8.39079 36.1146 8.48454 36.1511 8.5835 36.1511C8.67725 36.1511 8.7762 36.1146 8.84912 36.0417L12.8387 32.0573C12.9845 31.9063 12.9845 31.6719 12.8387 31.5209C12.6877 31.375 12.4481 31.375 12.297 31.5209Z" fill="black"/>
<mask id="mask1_121_5" style="mask-type:luminance" maskUnits="userSpaceOnUse" x="20" y="35" width="4" height="7">
<path d="M20.6665 35H23.3332V41.7083H20.6665V35Z" fill="white"/>
</mask>
<g mask="url(#mask1_121_5)">
<path d="M21.9998 35.3177C21.7915 35.3177 21.6196 35.4844 21.6196 35.6927V41.3334C21.6196 41.5417 21.7915 41.7084 21.9998 41.7084C22.2082 41.7084 22.38 41.5417 22.38 41.3334V35.6927C22.38 35.4844 22.2082 35.3177 21.9998 35.3177Z" fill="black"/>
</g>
<path d="M31.7033 31.5209C31.5522 31.375 31.3127 31.375 31.1616 31.5209C31.0158 31.6719 31.0158 31.9063 31.1616 32.0573L35.1512 36.0417C35.2241 36.1146 35.3231 36.1511 35.4168 36.1511C35.5158 36.1511 35.6095 36.1146 35.6825 36.0417C35.8335 35.8959 35.8335 35.6511 35.6825 35.5052L31.7033 31.5209Z" fill="black"/>
<mask id="mask2_121_5" style="mask-type:luminance" maskUnits="userSpaceOnUse" x="34" y="21" width="8" height="2">
<path d="M34 21.6666H41.3542V23H34V21.6666Z" fill="white"/>
</mask>
<g mask="url(#mask2_121_5)">
<path d="M40.979 21.9791H35.3384C35.13 21.9791 34.9634 22.1458 34.9634 22.3541C34.9634 22.5625 35.13 22.7343 35.3384 22.7343H40.979C41.1873 22.7343 41.354 22.5625 41.354 22.3541C41.354 22.1458 41.1873 21.9791 40.979 21.9791Z" fill="black"/>
</g>
<path d="M31.4325 13.3021C31.5314 13.3021 31.6252 13.2656 31.7033 13.1927L35.6825 9.20313C35.8335 9.05729 35.8335 8.81771 35.6825 8.67187C35.5366 8.52083 35.297 8.52083 35.1512 8.67187L31.1616 12.651C31.0158 12.8021 31.0158 13.0417 31.1616 13.1927C31.2397 13.2656 31.3335 13.3021 31.4325 13.3021Z" fill="black"/>
</svg>
