<svg width="45" height="45" viewBox="0 0 45 45" fill="none" xmlns="http://www.w3.org/2000/svg">
<circle cx="22.5" cy="22.5" r="22" stroke="black"/>
<path d="M20.1681 29L19.1281 25.54H13.9081L12.8681 29H10.9481L15.3681 15.22H17.7681L22.1681 29H20.1681ZM14.3681 24H18.6681L16.5281 16.8L14.3681 24ZM31.293 26.54C31.293 26.9667 31.3663 27.2867 31.513 27.5C31.6596 27.7 31.8796 27.8533 32.173 27.96L31.753 29.24C31.2063 29.1733 30.7663 29.02 30.433 28.78C30.0996 28.54 29.853 28.1667 29.693 27.66C28.9863 28.7133 27.9396 29.24 26.553 29.24C25.513 29.24 24.693 28.9467 24.093 28.36C23.493 27.7733 23.193 27.0067 23.193 26.06C23.193 24.94 23.593 24.08 24.393 23.48C25.2063 22.88 26.353 22.58 27.833 22.58H29.453V21.8C29.453 21.0533 29.273 20.52 28.913 20.2C28.553 19.88 27.9996 19.72 27.253 19.72C26.4796 19.72 25.533 19.9067 24.413 20.28L23.953 18.94C25.2596 18.46 26.473 18.22 27.593 18.22C28.833 18.22 29.7596 18.5267 30.373 19.14C30.9863 19.74 31.293 20.6 31.293 21.72V26.54ZM26.973 27.86C28.0263 27.86 28.853 27.3133 29.453 26.22V23.8H28.073C26.1263 23.8 25.153 24.52 25.153 25.96C25.153 26.5867 25.3063 27.06 25.613 27.38C25.9196 27.7 26.373 27.86 26.973 27.86Z" fill="black"/>
</svg>
