<svg width="45" height="45" viewBox="0 0 45 45" fill="none" xmlns="http://www.w3.org/2000/svg">
<circle cx="22.5" cy="22.5" r="22" stroke="#DB0000"/>
<path d="M15.75 27.9219C15.75 27.974 15.724 28 15.6719 28H10.6816C10.6296 28 10.6035 27.974 10.6035 27.9219V27.6875C10.6035 27.6354 10.6458 27.6094 10.7305 27.6094C11.6224 27.5703 12.2246 27.0951 12.5371 26.1836L16.5215 14.6504C16.528 14.6374 16.5312 14.6211 16.5312 14.6016L16.4238 14.2793C16.4238 14.2467 16.4368 14.2305 16.4629 14.2305H18.416C18.429 14.237 18.4453 14.2435 18.4648 14.25C18.4909 14.2565 18.5104 14.276 18.5234 14.3086L22.6543 25.9004C22.7454 26.0762 22.8171 26.2357 22.8691 26.3789C22.9277 26.5221 22.9928 26.6523 23.0645 26.7695C23.2207 27.0365 23.4779 27.2415 23.8359 27.3848C24.1354 27.5345 24.4089 27.6094 24.6562 27.6094C24.7083 27.6094 24.7344 27.6387 24.7344 27.6973V27.9219C24.7344 27.974 24.7083 28 24.6562 28H18.6797C18.6276 28 18.6016 27.974 18.6016 27.9219V27.6875C18.6016 27.6354 18.722 27.6029 18.9629 27.5898C19.2038 27.5768 19.4023 27.5638 19.5586 27.5508C20.4635 27.4531 20.916 27.1471 20.916 26.6328C20.916 26.5938 20.9095 26.5482 20.8965 26.4961L19.4219 22.3359C19.4154 22.3229 19.4023 22.2936 19.3828 22.248C19.3047 22.0267 19.168 21.916 18.9727 21.916H15.5059C15.3105 21.916 15.1576 22.0234 15.0469 22.2383C15.0273 22.2839 15.0176 22.3099 15.0176 22.3164L13.5527 26.6035V26.6914C13.5527 26.8607 13.6406 27.0137 13.8164 27.1504C14.2135 27.4564 14.7474 27.6094 15.418 27.6094H15.6719C15.724 27.6094 15.75 27.6354 15.75 27.6875V27.9219ZM18.6406 20.832C18.7578 20.832 18.8164 20.7832 18.8164 20.6855C18.8164 20.6335 18.8034 20.5749 18.7773 20.5098L17.3223 16.5059C17.2572 16.3301 17.2083 16.2422 17.1758 16.2422C17.1432 16.2422 17.0911 16.3333 17.0195 16.5156L15.6523 20.5098C15.6263 20.5749 15.6133 20.6465 15.6133 20.7246C15.6133 20.7962 15.6621 20.832 15.7598 20.832H18.6406ZM31.5117 26.3887C31.5117 26.5579 31.5898 26.6947 31.7461 26.7988C31.9089 26.8965 32.0944 26.9453 32.3027 26.9453C32.5111 26.9453 32.6836 26.8932 32.8203 26.7891C32.9635 26.6784 33.0612 26.623 33.1133 26.623C33.1654 26.623 33.1914 26.6947 33.1914 26.8379C33.1914 26.9746 33.1263 27.0918 32.9961 27.1895C32.0195 27.9056 31.3587 28.2637 31.0137 28.2637C30.597 28.2637 30.2585 27.8307 29.998 26.9648C29.9785 26.8997 29.9622 26.8704 29.9492 26.877C29.1419 27.4824 28.6341 27.847 28.4258 27.9707C27.8919 28.2767 27.3548 28.3255 26.8145 28.1172C26.2806 27.9089 25.8932 27.5638 25.6523 27.082C25.5352 26.8346 25.4766 26.571 25.4766 26.291C25.4766 25.7376 25.6816 25.2982 26.0918 24.9727C26.502 24.6471 27.2832 24.3346 28.4355 24.0352C28.8262 23.931 29.1745 23.7975 29.4805 23.6348C29.7865 23.472 29.946 23.3678 29.959 23.3223C29.9785 23.2767 29.9883 23.2344 29.9883 23.1953V21.3203C29.9883 20.5846 29.7018 20.0671 29.1289 19.7676C28.9401 19.6699 28.7122 19.6211 28.4453 19.6211C28.1849 19.6211 27.918 19.7253 27.6445 19.9336C27.3776 20.1419 27.2441 20.4382 27.2441 20.8223L27.293 21.2031C27.2539 21.2812 27.0195 21.4115 26.5898 21.5938C26.1602 21.776 25.9128 21.8737 25.8477 21.8867C25.7435 21.8867 25.6914 21.763 25.6914 21.5156C25.6914 21.2617 25.7663 20.9818 25.916 20.6758C26.0658 20.3698 26.2773 20.0898 26.5508 19.8359C27.1888 19.2435 27.918 18.9473 28.7383 18.9473C29.5586 18.9473 30.2259 19.1751 30.7402 19.6309C31.2546 20.0801 31.5117 20.6172 31.5117 21.2422V26.3887ZM27.0098 26.1055C27.0098 26.418 27.1302 26.6914 27.3711 26.9258C27.612 27.1536 27.8854 27.2676 28.1914 27.2676C28.5039 27.2676 28.8815 27.1374 29.3242 26.877C29.7669 26.61 29.9883 26.3366 29.9883 26.0566V24.0742C29.9883 24.0026 29.972 23.9668 29.9395 23.9668C29.9069 23.9668 29.8841 23.9701 29.8711 23.9766L27.6055 25.0312C27.3711 25.2005 27.2116 25.3438 27.127 25.4609C27.0488 25.5781 27.0098 25.793 27.0098 26.1055Z" fill="#DB0000"/>
</svg>
