<svg xmlns="http://www.w3.org/2000/svg" xmlns:xlink="http://www.w3.org/1999/xlink" width="50" zoomAndPan="magnify" viewBox="0 0 37.5 37.499999" height="50" preserveAspectRatio="xMidYMid meet" version="1.0"><defs><clipPath id="b3366facae"><path d="M 0.742188 4 L 17 4 L 17 34 L 0.742188 34 Z M 0.742188 4 " clip-rule="nonzero"/></clipPath><clipPath id="057eaebd62"><path d="M 29 3.105469 L 36.742188 3.105469 L 36.742188 34.605469 L 29 34.605469 Z M 29 3.105469 " clip-rule="nonzero"/></clipPath></defs><g clip-path="url(#b3366facae)"><path fill="#dfdfdf" d="M 15.21875 32.6875 C 15.410156 32.773438 15.574219 32.703125 15.640625 32.664062 C 15.714844 32.625 15.882812 32.503906 15.882812 32.25 L 15.882812 5.460938 C 15.882812 5.207031 15.714844 5.085938 15.640625 5.046875 C 15.574219 5.007812 15.410156 4.9375 15.21875 5.023438 L 6.5625 15.070312 L 6.5 15.109375 C 6.277344 15.246094 6.023438 15.316406 5.761719 15.316406 L 2.160156 15.316406 C 1.898438 15.316406 1.6875 15.53125 1.6875 15.792969 L 1.6875 21.917969 C 1.6875 22.179688 1.898438 22.394531 2.160156 22.394531 L 5.761719 22.394531 C 6.023438 22.394531 6.277344 22.464844 6.5 22.601562 L 6.5625 22.640625 L 6.609375 22.695312 Z M 15.410156 33.683594 C 15.15625 33.683594 14.902344 33.613281 14.675781 33.472656 L 14.609375 33.433594 L 5.953125 23.386719 C 5.894531 23.359375 5.828125 23.347656 5.761719 23.347656 L 2.160156 23.347656 C 1.378906 23.347656 0.742188 22.707031 0.742188 21.917969 L 0.742188 15.792969 C 0.742188 15.003906 1.378906 14.363281 2.160156 14.363281 L 5.761719 14.363281 C 5.828125 14.363281 5.894531 14.351562 5.953125 14.324219 L 14.609375 4.277344 L 14.675781 4.238281 C 15.117188 3.96875 15.652344 3.957031 16.105469 4.214844 C 16.558594 4.472656 16.828125 4.9375 16.828125 5.460938 L 16.828125 32.25 C 16.828125 32.773438 16.558594 33.238281 16.105469 33.496094 C 15.886719 33.621094 15.648438 33.683594 15.410156 33.683594 " fill-opacity="1" fill-rule="nonzero"/></g><path fill="#dfdfdf" d="M 21.265625 26.15625 C 21.082031 26.15625 20.90625 26.074219 20.78125 25.933594 C 20.667969 25.804688 20.613281 25.636719 20.625 25.464844 C 20.632812 25.292969 20.710938 25.132812 20.839844 25.019531 C 22.597656 23.460938 23.605469 21.214844 23.605469 18.855469 C 23.605469 16.496094 22.597656 14.25 20.839844 12.691406 C 20.710938 12.578125 20.632812 12.417969 20.625 12.246094 C 20.613281 12.074219 20.667969 11.90625 20.78125 11.777344 C 20.90625 11.636719 21.082031 11.554688 21.265625 11.554688 C 21.425781 11.554688 21.574219 11.613281 21.691406 11.71875 C 23.730469 13.523438 24.898438 16.125 24.898438 18.855469 C 24.898438 21.585938 23.730469 24.1875 21.691406 25.992188 C 21.542969 26.128906 21.378906 26.15625 21.265625 26.15625 " fill-opacity="1" fill-rule="nonzero"/><path fill="#dfdfdf" d="M 21.265625 26.15625 C 21.082031 26.15625 20.90625 26.074219 20.78125 25.933594 C 20.667969 25.804688 20.613281 25.636719 20.625 25.464844 C 20.632812 25.292969 20.710938 25.132812 20.839844 25.019531 C 22.597656 23.460938 23.605469 21.214844 23.605469 18.855469 C 23.605469 16.496094 22.597656 14.25 20.839844 12.691406 C 20.710938 12.578125 20.632812 12.417969 20.625 12.246094 C 20.613281 12.074219 20.667969 11.90625 20.78125 11.777344 C 20.90625 11.636719 21.082031 11.554688 21.265625 11.554688 C 21.425781 11.554688 21.574219 11.613281 21.691406 11.71875 C 23.730469 13.523438 24.898438 16.125 24.898438 18.855469 C 24.898438 21.585938 23.730469 24.1875 21.691406 25.992188 C 21.542969 26.128906 21.378906 26.15625 21.265625 26.15625 " fill-opacity="1" fill-rule="nonzero"/><path fill="#dfdfdf" d="M 25.457031 30.371094 C 25.277344 30.371094 25.101562 30.296875 24.984375 30.167969 C 24.867188 30.039062 24.808594 29.875 24.8125 29.703125 C 24.820312 29.527344 24.894531 29.367188 25.019531 29.25 C 27.886719 26.578125 29.53125 22.789062 29.53125 18.855469 C 29.53125 14.921875 27.886719 11.132812 25.019531 8.460938 C 24.894531 8.34375 24.820312 8.183594 24.8125 8.007812 C 24.808594 7.835938 24.867188 7.671875 24.984375 7.542969 C 25.105469 7.410156 25.28125 7.335938 25.457031 7.335938 C 25.621094 7.335938 25.777344 7.394531 25.894531 7.507812 C 29.023438 10.421875 30.820312 14.558594 30.820312 18.855469 C 30.820312 23.152344 29.023438 27.289062 25.894531 30.203125 C 25.777344 30.3125 25.625 30.371094 25.457031 30.371094 " fill-opacity="1" fill-rule="nonzero"/><path fill="#dfdfdf" d="M 25.457031 30.371094 C 25.277344 30.371094 25.101562 30.296875 24.984375 30.167969 C 24.867188 30.039062 24.808594 29.875 24.8125 29.703125 C 24.820312 29.527344 24.894531 29.367188 25.019531 29.25 C 27.886719 26.578125 29.53125 22.789062 29.53125 18.855469 C 29.53125 14.921875 27.886719 11.132812 25.019531 8.460938 C 24.894531 8.34375 24.820312 8.183594 24.8125 8.007812 C 24.808594 7.835938 24.867188 7.671875 24.984375 7.542969 C 25.105469 7.410156 25.28125 7.335938 25.457031 7.335938 C 25.621094 7.335938 25.777344 7.394531 25.894531 7.507812 C 29.023438 10.421875 30.820312 14.558594 30.820312 18.855469 C 30.820312 23.152344 29.023438 27.289062 25.894531 30.203125 C 25.777344 30.3125 25.625 30.371094 25.457031 30.371094 " fill-opacity="1" fill-rule="nonzero"/><g clip-path="url(#057eaebd62)"><path fill="#dfdfdf" d="M 29.652344 34.59375 C 29.472656 34.59375 29.300781 34.523438 29.183594 34.394531 C 29.066406 34.269531 29.003906 34.105469 29.007812 33.933594 C 29.011719 33.757812 29.082031 33.597656 29.207031 33.476562 C 33.234375 29.636719 35.453125 24.441406 35.453125 18.855469 C 35.453125 13.269531 33.234375 8.074219 29.207031 4.234375 C 29.082031 4.113281 29.011719 3.953125 29.007812 3.777344 C 29.003906 3.605469 29.066406 3.441406 29.183594 3.316406 C 29.300781 3.1875 29.460938 3.117188 29.632812 3.113281 L 29.652344 3.113281 C 29.816406 3.113281 29.976562 3.175781 30.09375 3.289062 C 34.382812 7.382812 36.742188 12.910156 36.742188 18.855469 C 36.742188 24.800781 34.382812 30.328125 30.09375 34.421875 C 29.976562 34.535156 29.820312 34.59375 29.652344 34.59375 " fill-opacity="1" fill-rule="nonzero"/><path fill="#dfdfdf" d="M 29.652344 34.59375 C 29.472656 34.59375 29.300781 34.523438 29.183594 34.394531 C 29.066406 34.269531 29.003906 34.105469 29.007812 33.933594 C 29.011719 33.757812 29.082031 33.597656 29.207031 33.476562 C 33.234375 29.636719 35.453125 24.441406 35.453125 18.855469 C 35.453125 13.269531 33.234375 8.074219 29.207031 4.234375 C 29.082031 4.113281 29.011719 3.953125 29.007812 3.777344 C 29.003906 3.605469 29.066406 3.441406 29.183594 3.316406 C 29.300781 3.1875 29.460938 3.117188 29.632812 3.113281 L 29.652344 3.113281 C 29.816406 3.113281 29.976562 3.175781 30.09375 3.289062 C 34.382812 7.382812 36.742188 12.910156 36.742188 18.855469 C 36.742188 24.800781 34.382812 30.328125 30.09375 34.421875 C 29.976562 34.535156 29.820312 34.59375 29.652344 34.59375 " fill-opacity="1" fill-rule="nonzero"/></g></svg>